<svg width="76" height="76" viewBox="0 0 76 76" fill="none" xmlns="http://www.w3.org/2000/svg">
<path fill-rule="evenodd" clip-rule="evenodd" d="M15.9978 16C14.3409 16 12.9978 17.3431 12.9978 19V27.5C12.9978 28.0523 13.4455 28.5 13.9978 28.5H60.9978C62.1024 28.5 62.9978 27.6046 62.9978 26.5V22.6875C62.9978 21.5829 62.1024 20.6875 60.9978 20.6875H34.8728C34.8728 20.6875 34.0915 20.6875 32.529 18.3438C31.3696 16.6047 31.0705 16.156 30.6742 16.0402C30.5364 16 30.3868 16 30.1853 16H15.9978Z" fill="#E09F00"/>
<g filter="url(#filter0_d_0_3)">
<path d="M13.0022 30.2776C13.0022 28.5974 13.0022 27.7574 13.3292 27.1156C13.6168 26.5511 14.0757 26.0922 14.6402 25.8046C15.282 25.4776 16.1212 25.4776 17.7995 25.4776C21.9385 25.4776 27.4832 25.4776 29.0022 25.4776C31.511 25.4776 33.011 22 34.5022 22C35.5946 22 50.3809 22 58.2116 22C59.8855 22 60.7224 22 61.3642 22.327C61.9287 22.6146 62.3876 23.0735 62.6752 23.638C63.0022 24.2798 63.0022 25.1198 63.0022 26.8V55.2C63.0022 56.8802 63.0022 57.7202 62.6752 58.362C62.3876 58.9265 61.9287 59.3854 61.3642 59.673C60.7224 60 59.8824 60 58.2022 60H17.8022C16.122 60 15.282 60 14.6402 59.673C14.0757 59.3854 13.6168 58.9265 13.3292 58.362C13.0022 57.7202 13.0022 56.8802 13.0022 55.2V30.2776Z" fill="url(#paint0_linear_0_3)"/>
</g>
<path d="M22.0022 47.9375C22.0022 46.8329 22.8976 45.9375 24.0022 45.9375H51.2522C52.3568 45.9375 53.2522 46.8329 53.2522 47.9375V60H22.0022V47.9375Z" fill="url(#paint1_linear_0_3)"/>
<path d="M28.2522 52.9688C28.2522 52.5373 28.602 52.1875 29.0335 52.1875H46.221C46.6524 52.1875 47.0022 52.5373 47.0022 52.9688V52.9688C47.0022 53.4002 46.6524 53.75 46.221 53.75H29.0335C28.602 53.75 28.2522 53.4002 28.2522 52.9688V52.9688Z" fill="#114A8B"/>
<defs>
<filter id="filter0_d_0_3" x="11.0022" y="19" width="54" height="42" filterUnits="userSpaceOnUse" color-interpolation-filters="sRGB">
<feFlood flood-opacity="0" result="BackgroundImageFix"/>
<feColorMatrix in="SourceAlpha" type="matrix" values="0 0 0 0 0 0 0 0 0 0 0 0 0 0 0 0 0 0 127 0" result="hardAlpha"/>
<feOffset dy="-1"/>
<feGaussianBlur stdDeviation="1"/>
<feComposite in2="hardAlpha" operator="out"/>
<feColorMatrix type="matrix" values="0 0 0 0 0 0 0 0 0 0 0 0 0 0 0 0 0 0 0.25 0"/>
<feBlend mode="normal" in2="BackgroundImageFix" result="effect1_dropShadow_0_3"/>
<feBlend mode="normal" in="SourceGraphic" in2="effect1_dropShadow_0_3" result="shape"/>
</filter>
<linearGradient id="paint0_linear_0_3" x1="38.0022" y1="26.0632" x2="38.0022" y2="60.5856" gradientUnits="userSpaceOnUse">
<stop stop-color="#FFD55E"/>
<stop offset="1" stop-color="#F6B608"/>
</linearGradient>
<linearGradient id="paint1_linear_0_3" x1="22.0022" y1="45.9375" x2="53.2522" y2="60" gradientUnits="userSpaceOnUse">
<stop stop-color="#2196D6"/>
<stop offset="1" stop-color="#0062B4"/>
</linearGradient>
</defs>
</svg>
