<svg width="76" height="76" viewBox="0 0 76 76" fill="none" xmlns="http://www.w3.org/2000/svg">
<g clip-path="url(#clip0_1_2)">
<path fill-rule="evenodd" clip-rule="evenodd" d="M41.7793 41.7793C35.39 48.1686 25.0309 48.1686 18.6416 41.7793C12.2524 35.39 12.2524 25.0309 18.6416 18.6416C25.0309 12.2524 35.39 12.2524 41.7793 18.6416C48.1686 25.0309 48.1686 35.39 41.7793 41.7793ZM38.2197 38.2197C33.7963 42.643 26.6246 42.643 22.2013 38.2197C17.7779 33.7963 17.7779 26.6246 22.2013 22.2013C26.6246 17.7779 33.7963 17.7779 38.2197 22.2013C42.643 26.6246 42.643 33.7963 38.2197 38.2197ZM46.7518 42.5091C45.5802 41.3375 43.6807 41.3375 42.5091 42.5091C41.3375 43.6807 41.3375 45.5802 42.5091 46.7518L53.1157 57.3584C54.2873 58.5299 56.1868 58.5299 57.3584 57.3584C58.5299 56.1868 58.5299 54.2873 57.3584 53.1157L46.7518 42.5091Z" fill="#5C5C5C"/>
</g>
<defs>
<clipPath id="clip0_1_2">
<rect width="76" height="76" fill="white"/>
</clipPath>
</defs>
</svg>
