<svg width="76" height="76" viewBox="0 0 76 76" fill="none" xmlns="http://www.w3.org/2000/svg">
<g clip-path="url(#clip0_1_8)">
<g clip-path="url(#clip1_1_8)">
<g clip-path="url(#clip2_1_8)">
<path d="M12.5 18.9C12.5 16.6598 12.5 15.5397 12.936 14.684C13.3195 13.9314 13.9314 13.3195 14.684 12.936C15.5397 12.5 16.6598 12.5 18.9 12.5H34.9C35.4601 12.5 35.7401 12.5 35.954 12.609C36.1422 12.7049 36.2951 12.8578 36.391 13.046C36.5 13.2599 36.5 13.5399 36.5 14.1V34.9C36.5 35.4601 36.5 35.7401 36.391 35.954C36.2951 36.1422 36.1422 36.2951 35.954 36.391C35.7401 36.5 35.4601 36.5 34.9 36.5H14.1C13.5399 36.5 13.2599 36.5 13.046 36.391C12.8578 36.2951 12.7049 36.1422 12.609 35.954C12.5 35.7401 12.5 35.4601 12.5 34.9V18.9Z" fill="url(#paint0_linear_1_8)"/>
<path d="M39.5 14.11C39.5 13.5405 39.5 13.2558 39.6126 13.039C39.7075 12.8564 39.8564 12.7075 40.039 12.6126C40.2558 12.5 40.5405 12.5 41.11 12.5H57.06C59.338 12.5 60.4769 12.5 61.3439 12.9503C62.0745 13.3298 62.6702 13.9255 63.0497 14.6561C63.5 15.5231 63.5 16.662 63.5 18.94V34.89C63.5 35.4595 63.5 35.7442 63.3874 35.961C63.2925 36.1436 63.1436 36.2925 62.961 36.3874C62.7442 36.5 62.4595 36.5 61.89 36.5H41.11C40.5405 36.5 40.2558 36.5 40.039 36.3874C39.8564 36.2925 39.7075 36.1436 39.6126 35.961C39.5 35.7442 39.5 35.4595 39.5 34.89V14.11Z" fill="#0085FF"/>
</g>
<g clip-path="url(#clip3_1_8)">
<path d="M12.5 41.11C12.5 40.5405 12.5 40.2558 12.6126 40.039C12.7075 39.8564 12.8564 39.7075 13.039 39.6126C13.2558 39.5 13.5405 39.5 14.11 39.5H34.89C35.4595 39.5 35.7442 39.5 35.961 39.6126C36.1436 39.7075 36.2925 39.8564 36.3874 40.039C36.5 40.2558 36.5 40.5405 36.5 41.11V61.89C36.5 62.4595 36.5 62.7442 36.3874 62.961C36.2925 63.1436 36.1436 63.2925 35.961 63.3874C35.7442 63.5 35.4595 63.5 34.89 63.5H18.94C16.662 63.5 15.5231 63.5 14.6561 63.0497C13.9255 62.6702 13.3298 62.0745 12.9503 61.3439C12.5 60.4769 12.5 59.338 12.5 57.06V41.11Z" fill="#0085FF"/>
<path d="M39.5 41.11C39.5 40.5405 39.5 40.2558 39.6126 40.039C39.7075 39.8564 39.8564 39.7075 40.039 39.6126C40.2558 39.5 40.5405 39.5 41.11 39.5H61.89C62.4595 39.5 62.7442 39.5 62.961 39.6126C63.1436 39.7075 63.2925 39.8564 63.3874 40.039C63.5 40.2558 63.5 40.5405 63.5 41.11V57.06C63.5 59.338 63.5 60.4769 63.0497 61.3439C62.6702 62.0745 62.0745 62.6702 61.3439 63.0497C60.4769 63.5 59.338 63.5 57.06 63.5H41.11C40.5405 63.5 40.2558 63.5 40.039 63.3874C39.8564 63.2925 39.7075 63.1436 39.6126 62.961C39.5 62.7442 39.5 62.4595 39.5 61.89V41.11Z" fill="#0085FF"/>
</g>
</g>
</g>
<defs>
<linearGradient id="paint0_linear_1_8" x1="12" y1="12" x2="36" y2="36" gradientUnits="userSpaceOnUse">
<stop stop-color="#00E0FF"/>
<stop offset="0.270833" stop-color="#00C2FF"/>
<stop offset="0.671875" stop-color="#0085FF"/>
</linearGradient>
<clipPath id="clip0_1_8">
<rect width="76" height="76" fill="white"/>
</clipPath>
<clipPath id="clip1_1_8">
<rect width="79" height="51" fill="white" transform="translate(-1.5 12.5)"/>
</clipPath>
<clipPath id="clip2_1_8">
<rect width="79" height="24" fill="white" transform="translate(-1.5 12.5)"/>
</clipPath>
<clipPath id="clip3_1_8">
<rect width="79" height="24" fill="white" transform="translate(-1.5 39.5)"/>
</clipPath>
</defs>
</svg>
